<svg width="36" height="202" xmlns="http://www.w3.org/2000/svg">
 <!-- Created with Method Draw - http://github.com/duopixel/Method-Draw/ -->
 <g>
  <title>Layer 1</title>
  <path id="svg_4" d="m0.75,17.592042l0,0c0,-9.301602 7.776079,-16.842042 17.368356,-16.842042l0,0c4.606372,0 9.024084,1.774423 12.28128,4.932919c3.2572,3.158497 5.087076,7.442334 5.087076,11.909123l0,0c0,9.301601 -7.776079,16.842042 -17.368356,16.842042l0,0c-9.592276,0 -17.368356,-7.540441 -17.368356,-16.842042zm8.684178,0l0,0c0,4.6508 3.888042,8.421021 8.684178,8.421021c4.79614,0 8.684178,-3.770221 8.684178,-8.421021c0,-4.6508 -3.888041,-8.421021 -8.684178,-8.421021l0,0c-4.796136,0 -8.684178,3.770222 -8.684178,8.421021z" fill-opacity="null" stroke-width="1.5" stroke="#ffffff" fill="#fff"/>
  <rect stroke="#ffffff" id="svg_5" height="153.683629" width="6.315768" y="33.750139" x="14.814684" fill-opacity="null" stroke-width="1.5" fill="#fff"/>
  <ellipse stroke="#ffffff" ry="7.368393" rx="7.368393" id="svg_6" cy="193.69105" cx="18.284452" stroke-width="1.5" fill="#ffffff"/>
 </g>
</svg>